<svg width="35" height="35" viewBox="0 0 35 35" fill="none" xmlns="http://www.w3.org/2000/svg">
<rect width="35" height="35" rx="3" fill="url(#paint0_linear_161_706)"/>
<path d="M17.5001 10.6437C19.7347 10.6437 19.997 10.6536 20.8802 10.6935C21.697 10.73 22.1386 10.8661 22.4341 10.9823C22.8259 11.1351 23.1048 11.3144 23.397 11.6065C23.6892 11.8987 23.8718 12.1776 24.0212 12.5694C24.1341 12.8649 24.2735 13.3065 24.3101 14.1233C24.3499 15.0065 24.3599 15.2688 24.3599 17.5034C24.3599 19.738 24.3499 20.0003 24.3101 20.8835C24.2735 21.7003 24.1374 22.1419 24.0212 22.4374C23.8685 22.8292 23.6892 23.1081 23.397 23.4003C23.1048 23.6925 22.8259 23.8751 22.4341 24.0245C22.1386 24.1374 21.697 24.2769 20.8802 24.3134C19.997 24.3532 19.7347 24.3632 17.5001 24.3632C15.2655 24.3632 15.0032 24.3532 14.12 24.3134C13.3032 24.2769 12.8616 24.1407 12.5661 24.0245C12.1743 23.8718 11.8954 23.6925 11.6032 23.4003C11.311 23.1081 11.1284 22.8292 10.979 22.4374C10.8661 22.1419 10.7267 21.7003 10.6901 20.8835C10.6503 20.0003 10.6403 19.738 10.6403 17.5034C10.6403 15.2688 10.6503 15.0065 10.6901 14.1233C10.7267 13.3065 10.8628 12.8649 10.979 12.5694C11.1317 12.1776 11.311 11.8987 11.6032 11.6065C11.8954 11.3144 12.1743 11.1317 12.5661 10.9823C12.8616 10.8694 13.3032 10.73 14.12 10.6935C15.0032 10.6503 15.2655 10.6437 17.5001 10.6437ZM17.5001 9.13623C15.229 9.13623 14.9435 9.14619 14.0503 9.18604C13.1604 9.22588 12.5528 9.36865 12.0216 9.57451C11.4704 9.78701 11.0056 10.0759 10.5407 10.5407C10.0759 11.0056 9.79033 11.4737 9.57451 12.0216C9.36865 12.5528 9.22588 13.1604 9.18604 14.0536C9.14619 14.9435 9.13623 15.229 9.13623 17.5001C9.13623 19.7712 9.14619 20.0567 9.18604 20.9499C9.22588 21.8397 9.36865 22.4474 9.57451 22.9819C9.78701 23.5331 10.0759 23.9979 10.5407 24.4628C11.0056 24.9276 11.4737 25.2132 12.0216 25.429C12.5528 25.6349 13.1604 25.7776 14.0536 25.8175C14.9468 25.8573 15.229 25.8673 17.5034 25.8673C19.7778 25.8673 20.0601 25.8573 20.9532 25.8175C21.8431 25.7776 22.4507 25.6349 22.9853 25.429C23.5364 25.2165 24.0013 24.9276 24.4661 24.4628C24.931 23.9979 25.2165 23.5298 25.4323 22.9819C25.6382 22.4507 25.781 21.8431 25.8208 20.9499C25.8606 20.0567 25.8706 19.7745 25.8706 17.5001C25.8706 15.2257 25.8606 14.9435 25.8208 14.0503C25.781 13.1604 25.6382 12.5528 25.4323 12.0183C25.2198 11.4671 24.931 11.0022 24.4661 10.5374C24.0013 10.0726 23.5331 9.78701 22.9853 9.57119C22.454 9.36533 21.8464 9.22256 20.9532 9.18271C20.0567 9.14619 19.7712 9.13623 17.5001 9.13623Z" fill="white"/>
<path d="M17.5001 13.2036C15.1294 13.2036 13.2036 15.1261 13.2036 17.5001C13.2036 19.8741 15.1294 21.7966 17.5001 21.7966C19.8708 21.7966 21.7966 19.8708 21.7966 17.5001C21.7966 15.1294 19.8708 13.2036 17.5001 13.2036ZM17.5001 20.2892C15.9595 20.2892 14.711 19.0407 14.711 17.5001C14.711 15.9595 15.9595 14.711 17.5001 14.711C19.0407 14.711 20.2892 15.9595 20.2892 17.5001C20.2892 19.0407 19.0407 20.2892 17.5001 20.2892Z" fill="white"/>
<path d="M21.9659 14.0367C22.5197 14.0367 22.9686 13.5878 22.9686 13.034C22.9686 12.4802 22.5197 12.0312 21.9659 12.0312C21.4121 12.0312 20.9631 12.4802 20.9631 13.034C20.9631 13.5878 21.4121 14.0367 21.9659 14.0367Z" fill="white"/>
<defs>
<linearGradient id="paint0_linear_161_706" x1="3.68785e-07" y1="35" x2="35" y2="3.68785e-07" gradientUnits="userSpaceOnUse">
<stop stop-color="#F38334"/>
<stop offset="0.5" stop-color="#DA2E7D"/>
<stop offset="1" stop-color="#6B54C6"/>
</linearGradient>
</defs>
</svg>
