<svg width="35" height="35" viewBox="0 0 35 35" fill="none" xmlns="http://www.w3.org/2000/svg">
<rect width="35" height="35" rx="3" fill="#0A66C2"/>
<path d="M23.4832 23.4866H20.9631V19.5387C20.9631 18.5991 20.9465 17.3872 19.6516 17.3872C18.34 17.3872 18.1375 18.4131 18.1375 19.469V23.4833H15.6174V15.3717H18.0346V16.4807H18.0678C18.3102 16.0657 18.6588 15.727 19.0805 15.4946C19.5021 15.2655 19.977 15.1526 20.4551 15.1692C23.0084 15.1692 23.4799 16.8493 23.4799 19.034L23.4832 23.4866ZM12.7818 14.2628C12.493 14.2628 12.2107 14.1764 11.9684 14.0171C11.7293 13.8577 11.54 13.6286 11.4305 13.3596C11.3209 13.0907 11.291 12.7985 11.3475 12.5163C11.4039 12.234 11.5434 11.9717 11.7459 11.7692C11.9518 11.5633 12.2107 11.4239 12.493 11.3674C12.7752 11.311 13.0707 11.3409 13.3363 11.4505C13.602 11.56 13.8311 11.7493 13.9937 11.9883C14.1531 12.2274 14.2395 12.5096 14.2395 12.8018C14.2395 12.9944 14.2029 13.1837 14.1299 13.3596C14.0568 13.5356 13.9473 13.6983 13.8145 13.8344C13.6783 13.9706 13.5189 14.0768 13.3396 14.1499C13.1637 14.2262 12.9744 14.2628 12.7818 14.2628ZM14.0402 23.4866H11.5201V15.3717H14.0402V23.4866ZM24.7416 9.00006H10.2551C9.92637 8.99674 9.61094 9.12292 9.3752 9.35202C9.13945 9.58112 9.00332 9.89655 9 10.2253V24.7715C9.00332 25.1003 9.13945 25.4157 9.37187 25.6448C9.60762 25.8739 9.92305 26.0034 10.2518 26.0001H24.7383C25.067 26.0034 25.3857 25.8772 25.6215 25.6481C25.8572 25.419 25.9934 25.1036 25.9967 24.7749V10.2253C25.9934 9.89655 25.8572 9.58112 25.6215 9.35202C25.3857 9.12292 25.0703 8.99674 24.7416 9.00006Z" fill="white"/>
</svg>
